<?xml version="1.0" encoding="utf-8"?>
<!-- Generator: Adobe Illustrator 15.0.0, SVG Export Plug-In . SVG Version: 6.00 Build 0)  -->
<!DOCTYPE svg PUBLIC "-//W3C//DTD SVG 1.1//EN" "http://www.w3.org/Graphics/SVG/1.1/DTD/svg11.dtd">
<svg version="1.1" id="Layer_1" xmlns="http://www.w3.org/2000/svg" xmlns:xlink="http://www.w3.org/1999/xlink" x="0px" y="0px"
	 width="28.8px" height="28.8px" viewBox="26.186 21.553 28.8 28.8" enable-background="new 26.186 21.553 28.8 28.8"
	 xml:space="preserve">
<path stroke="#000000" stroke-width="0.25" stroke-miterlimit="10" d="M43.925,33.207c1.512-3.097,3.002-6.301,4.562-9.405
	c0.086-0.17,0.131-0.521,0.425-0.496c0.186,0.238,0.05,0.553,0.022,0.803c-0.438,3.966-0.874,7.985-1.301,12.028
	c-0.028,0.285-0.135,0.648-0.091,0.853c0.051,0.26,0.644,0.737,0.873,0.967c1.549,1.549,2.864,3.101,4.442,4.68
	c0.406,0.404,0.882,0.902,1.348,1.395c0.135,0.144,0.405,0.364,0.331,0.52c-0.113,0.234-1.641,0.119-2.01,0.119
	c-4.274,0-8.32,0.069-12.571,0.069c-0.715,0-1.471-0.085-2.104,0c-0.374,0.052-0.793,0.268-1.206,0.402
	c-1.036,0.345-1.898,0.604-3.024,0.97c-0.549,0.178-0.645,0.235-0.803-0.33c-0.058-0.209-0.094-0.3-0.142-0.546
	c-0.586,0.277-0.901-0.486-1.157-0.824c-0.108-0.148-0.233-0.264-0.354-0.426c-0.098-0.134-0.306-0.382-0.307-0.474
	c-0.007-0.351,0.722-0.62,0.78-0.944c0.035-0.204-0.121-0.75-0.165-1.018c-0.382-2.274-0.858-4.706-1.206-6.947
	c-0.873,0.315-1.828,0.72-2.742,1.11c-0.277,0.12-0.587,0.377-0.898,0.237c-0.051-0.255,0.193-0.435,0.331-0.616
	c0.846-1.106,1.708-2.204,2.6-3.355c0.126-0.163,0.307-0.513,0.451-0.543c0.131-0.029,0.456,0.106,0.613,0.142
	c0.464,0.106,0.76,0.18,1.228,0.284c0.212,0.046,0.46,0.045,0.615,0.118c0.208,0.097,0.51,0.612,0.662,0.804
	c0.235,0.293,0.448,0.559,0.661,0.78c0.548-3.77,1.022-7.613,1.607-11.343c0.245-0.247,0.504,0.323,0.686,0.566
	C38.624,26.213,41.425,29.876,43.925,33.207z M38.701,35.641c0.309-0.046,0.435-0.521,0.782-0.567
	c0.187-0.025,0.537,0.093,0.803,0.142c0.815,0.146,1.723,0.315,2.434,0.449c0.338-0.68,0.672-1.361,0.995-2.056
	c-2.607-3.54-5.245-7.047-7.895-10.539C36.773,27.268,37.76,31.434,38.701,35.641z M35.205,26c-0.307,2.236-0.625,4.403-0.923,6.641
	c-0.041,0.303-0.223,1.083-0.166,1.347c0.025,0.119,0.22,0.284,0.332,0.425c0.818,1.03,1.557,1.997,2.363,2.928
	c0.57-0.5,1.165-0.977,1.7-1.51c-1.003-4.157-1.904-8.415-2.929-12.548C35.494,24.158,35.335,25.051,35.205,26z M42.72,36.54
	c0.338,0.149,0.683,0.295,1.04,0.425c0.506-0.395,1-0.817,1.51-1.253c0.114-0.095,0.407-0.389,0.568-0.378
	c0.137,0.012,0.237,0.202,0.354,0.332c0.242,0.266,0.454,0.454,0.684,0.684c0.108,0.105,0.195,0.289,0.333,0.263
	c0.402-4.01,0.915-8.036,1.275-12.006C46.583,28.602,44.634,32.552,42.72,36.54z M30.124,31.837
	c-0.787,1.002-1.558,2.018-2.341,3.024c0.681-0.562,1.41-1.153,2.103-1.748c0.229-0.196,0.463-0.496,0.709-0.59
	c0.444-0.169,0.95-0.073,1.465-0.237C31.425,32.127,30.768,31.987,30.124,31.837z M32.392,32.499
	c-0.528,0.085-1.073,0.154-1.606,0.237c0.75,4.282,1.577,8.492,2.34,12.76c1.448-2.238,2.842-4.53,4.229-6.829
	C35.703,36.607,34.088,34.515,32.392,32.499z M29.178,34.011c-0.463,0.394-0.939,0.791-1.324,1.182
	c0.002-0.015,0.004-0.027,0.023-0.022c0.43-0.19,0.864-0.359,1.3-0.545c0.42-0.178,0.842-0.44,1.323-0.472
	c0.167,0.41,0.207,0.866,0.283,1.298c0.516,2.904,1.082,5.909,1.607,8.767c0.039,0.21,0.021,0.463,0.166,0.639
	c0.299-0.048,0.104-0.433,0.07-0.614c-0.705-3.765-1.385-7.636-2.081-11.344C30.099,33.216,29.639,33.62,29.178,34.011z
	 M42.366,36.398c0.043-0.133,0.184-0.28,0.165-0.402c-0.649-0.079-1.306-0.271-1.915-0.307
	C41.212,35.912,41.777,36.167,42.366,36.398z M37.047,37.674c0.193,0.223,0.357,0.479,0.568,0.684
	c0.514-0.863,1.05-1.705,1.582-2.552c0.008-0.029,0.037-0.048-0.021-0.048C38.492,36.425,37.715,36.995,37.047,37.674z
	 M40.545,39.613c0.92-0.735,1.958-1.557,2.86-2.388c-1.196-0.467-2.342-0.981-3.546-1.441
	C40.078,37.069,40.305,38.347,40.545,39.613z M45.793,35.784c-1.697,1.409-3.419,2.788-5.082,4.23
	c4.364,1.349,8.675,2.747,13.021,4.111C51.172,41.353,48.445,38.54,45.793,35.784z M33.763,45.213
	c0.073,0.032,0.124-0.062,0.164-0.096c1.89-1.515,3.724-3.056,5.579-4.632c0.222-0.189,0.762-0.499,0.804-0.71
	c0.035-0.179-0.115-0.68-0.166-0.967c-0.162-0.916-0.38-2.246-0.566-2.929C37.65,39.001,35.714,42.114,33.763,45.213z
	 M39.222,42.329c-0.315,0.522-0.63,1.038-0.923,1.536c-0.103,0.177-0.246,0.354-0.236,0.496c5.114-0.021,10.243-0.028,15.315-0.095
	c-4.3-1.342-8.564-2.714-12.856-4.062C40.078,40.859,39.656,41.613,39.222,42.329z M36.859,43.156
	c-0.926,0.769-1.87,1.563-2.765,2.316c-0.035,0.03-0.135,0.063-0.118,0.142c1.236-0.403,2.453-0.825,3.711-1.206
	c0.742-1.242,1.5-2.47,2.221-3.733c0.025,0,0.019-0.03-0.024-0.022C38.93,41.497,37.872,42.315,36.859,43.156z M31.33,43.556
	c0.201,0.271,0.405,0.541,0.613,0.805c-0.072-0.423-0.11-0.88-0.237-1.253C31.588,43.265,31.429,43.383,31.33,43.556z"/>
</svg>
