<?xml version="1.0" encoding="utf-8"?>
<!-- Generator: Adobe Illustrator 15.0.0, SVG Export Plug-In . SVG Version: 6.00 Build 0)  -->
<!DOCTYPE svg PUBLIC "-//W3C//DTD SVG 1.1//EN" "http://www.w3.org/Graphics/SVG/1.1/DTD/svg11.dtd">
<svg version="1.1" id="Layer_1" xmlns="http://www.w3.org/2000/svg" xmlns:xlink="http://www.w3.org/1999/xlink" x="0px" y="0px"
	 width="22.32px" height="20.458px" viewBox="29.49 24.624 22.32 20.458" enable-background="new 29.49 24.624 22.32 20.458"
	 xml:space="preserve">
<path d="M43.231,34.087c1.171-2.396,2.322-4.874,3.529-7.274c0.067-0.131,0.103-0.403,0.329-0.383
	c0.145,0.184,0.039,0.428,0.017,0.621c-0.337,3.067-0.675,6.176-1.005,9.303c-0.021,0.22-0.104,0.501-0.071,0.659
	c0.039,0.201,0.499,0.57,0.676,0.748c1.198,1.197,2.216,2.398,3.436,3.619c0.314,0.312,0.682,0.698,1.043,1.078
	c0.104,0.111,0.313,0.282,0.256,0.402c-0.087,0.182-1.269,0.093-1.554,0.093c-3.307,0-6.437,0.054-9.724,0.054
	c-0.553,0-1.137-0.066-1.626,0c-0.29,0.039-0.614,0.206-0.933,0.311c-0.802,0.267-1.468,0.468-2.339,0.75
	c-0.424,0.138-0.499,0.183-0.621-0.256c-0.045-0.161-0.074-0.231-0.11-0.422c-0.453,0.215-0.698-0.376-0.895-0.638
	c-0.083-0.114-0.18-0.203-0.274-0.329c-0.076-0.104-0.236-0.295-0.238-0.366c-0.005-0.271,0.559-0.479,0.604-0.73
	c0.027-0.158-0.094-0.58-0.127-0.786c-0.296-1.76-0.664-3.641-0.933-5.374c-0.676,0.244-1.414,0.557-2.121,0.859
	c-0.214,0.093-0.454,0.292-0.694,0.183c-0.041-0.197,0.149-0.336,0.256-0.476c0.654-0.855,1.321-1.705,2.01-2.595
	c0.098-0.126,0.237-0.396,0.349-0.42c0.102-0.022,0.353,0.082,0.475,0.109c0.36,0.083,0.588,0.139,0.95,0.219
	c0.164,0.036,0.356,0.035,0.475,0.091c0.161,0.075,0.395,0.474,0.512,0.622c0.181,0.227,0.347,0.432,0.511,0.603
	c0.424-2.916,0.79-5.888,1.243-8.773c0.189-0.191,0.39,0.25,0.53,0.438C39.132,28.678,41.299,31.511,43.231,34.087z M39.192,35.97
	c0.238-0.036,0.336-0.403,0.604-0.439c0.145-0.019,0.415,0.073,0.622,0.11c0.63,0.113,1.333,0.244,1.882,0.347
	c0.261-0.525,0.52-1.052,0.769-1.59c-2.016-2.738-4.055-5.45-6.105-8.151C37.7,29.494,38.463,32.716,39.192,35.97z M36.488,28.513
	c-0.237,1.729-0.483,3.405-0.713,5.136c-0.031,0.234-0.172,0.838-0.128,1.042c0.02,0.092,0.17,0.22,0.257,0.329
	c0.633,0.796,1.204,1.544,1.827,2.265c0.441-0.387,0.901-0.756,1.316-1.168c-0.776-3.215-1.473-6.509-2.266-9.706
	C36.711,27.088,36.588,27.779,36.488,28.513z M42.3,36.666c0.262,0.115,0.527,0.228,0.804,0.328
	c0.392-0.305,0.773-0.633,1.169-0.969c0.088-0.073,0.314-0.301,0.438-0.292c0.106,0.009,0.184,0.156,0.274,0.256
	c0.187,0.206,0.352,0.351,0.529,0.53c0.083,0.081,0.15,0.224,0.257,0.202c0.312-3.101,0.707-6.215,0.986-9.286
	C45.287,30.525,43.78,33.581,42.3,36.666z M32.558,33.028c-0.609,0.775-1.206,1.561-1.811,2.339
	c0.526-0.435,1.091-0.892,1.626-1.352c0.177-0.152,0.358-0.384,0.548-0.457c0.344-0.131,0.735-0.057,1.133-0.184
	C33.564,33.252,33.056,33.144,32.558,33.028z M34.312,33.54c-0.409,0.066-0.831,0.119-1.243,0.183c0.58,3.312,1.22,6.568,1.81,9.87
	c1.12-1.731,2.199-3.504,3.272-5.282C36.874,36.717,35.623,35.099,34.312,33.54z M31.826,34.709
	c-0.358,0.305-0.727,0.611-1.024,0.914c0.001-0.012,0.003-0.021,0.018-0.018c0.333-0.147,0.667-0.278,1.005-0.421
	c0.326-0.137,0.651-0.341,1.024-0.365c0.128,0.317,0.16,0.669,0.219,1.004c0.399,2.246,0.836,4.57,1.243,6.78
	c0.03,0.163,0.017,0.357,0.128,0.494c0.231-0.037,0.082-0.335,0.055-0.476c-0.544-2.911-1.071-5.905-1.609-8.773
	C32.539,34.094,32.183,34.406,31.826,34.709z M42.026,36.555c0.034-0.103,0.143-0.217,0.128-0.311
	c-0.501-0.061-1.009-0.21-1.48-0.237C41.134,36.179,41.571,36.376,42.026,36.555z M37.913,37.542
	c0.149,0.173,0.276,0.37,0.439,0.529c0.398-0.668,0.813-1.319,1.224-1.975c0.005-0.022,0.028-0.037-0.017-0.037
	C39.031,36.577,38.429,37.017,37.913,37.542z M40.617,39.042c0.712-0.568,1.515-1.203,2.212-1.847
	c-0.925-0.36-1.812-0.759-2.742-1.114C40.257,37.075,40.432,38.063,40.617,39.042z M44.676,36.081
	c-1.312,1.09-2.644,2.156-3.929,3.271c3.375,1.043,6.709,2.125,10.071,3.181C48.836,40.388,46.728,38.212,44.676,36.081z
	 M35.373,43.374c0.056,0.025,0.095-0.048,0.127-0.073c1.462-1.172,2.88-2.364,4.314-3.583c0.172-0.146,0.589-0.386,0.622-0.549
	c0.027-0.139-0.089-0.526-0.128-0.748c-0.125-0.709-0.293-1.737-0.438-2.266C38.379,38.569,36.881,40.976,35.373,43.374z
	 M39.595,41.143c-0.244,0.403-0.487,0.803-0.714,1.188c-0.079,0.137-0.19,0.274-0.183,0.384c3.955-0.017,7.922-0.022,11.845-0.073
	c-3.325-1.038-6.625-2.1-9.943-3.143C40.258,40.006,39.93,40.588,39.595,41.143z M37.767,41.783
	c-0.716,0.594-1.446,1.209-2.139,1.791c-0.027,0.023-0.104,0.05-0.091,0.109c0.956-0.312,1.897-0.638,2.87-0.933
	c0.574-0.961,1.16-1.91,1.717-2.888c0.02,0,0.015-0.023-0.018-0.018C39.368,40.5,38.551,41.132,37.767,41.783z M33.49,42.092
	c0.156,0.21,0.313,0.418,0.475,0.622c-0.056-0.327-0.085-0.681-0.183-0.969C33.69,41.867,33.568,41.958,33.49,42.092z"/>
</svg>
