<?xml version="1.0" encoding="utf-8"?>
<!-- Generator: Adobe Illustrator 15.0.0, SVG Export Plug-In . SVG Version: 6.00 Build 0)  -->
<!DOCTYPE svg PUBLIC "-//W3C//DTD SVG 1.1//EN" "http://www.w3.org/Graphics/SVG/1.1/DTD/svg11.dtd">
<svg version="1.1" id="Layer_1" xmlns="http://www.w3.org/2000/svg" xmlns:xlink="http://www.w3.org/1999/xlink" x="0px" y="0px"
	 width="82.934px" height="71.05px" viewBox="0 0 82.934 71.05" enable-background="new 0 0 82.934 71.05" xml:space="preserve">
<pattern  x="-127.033" y="205.025" width="22.951" height="22.951" patternUnits="userSpaceOnUse" id="SVGID_1_" viewBox="0 -22.951 22.951 22.951" overflow="visible">
	<g>
		<polygon fill="none" points="0,0 22.951,0 22.951,-22.951 0,-22.951 		"/>
		<g>
			<polygon fill="none" points="0,-22.951 22.951,-22.951 22.951,0 0,0 			"/>
			<polygon fill="#7CA4C5" points="22.951,-22.951 0,-22.951 0,0 22.951,0 			"/>
		</g>
	</g>
</pattern>
<pattern  x="-127.033" y="205.025" width="22.951" height="22.951" patternUnits="userSpaceOnUse" id="SVGID_2_" viewBox="0 -22.951 22.951 22.951" overflow="visible">
	<g>
		<polygon fill="none" points="0,0 22.951,0 22.951,-22.951 0,-22.951 		"/>
		<g>
			<polygon fill="none" points="0,-22.951 22.951,-22.951 22.951,0 0,0 			"/>
			<polygon fill="#7CA4C5" points="22.951,-22.951 0,-22.951 0,0 22.951,0 			"/>
		</g>
	</g>
</pattern>
<pattern  id="SVGID_3_" xlink:href="#SVGID_1_" patternTransform="matrix(1 0 0 1 -655.5693 16963.1094)">
</pattern>
<polygon fill="url(#SVGID_3_)" points="56.66,39.595 80.899,65.048 40.856,52.485 "/>
<pattern  id="SVGID_4_" xlink:href="#SVGID_2_" patternTransform="matrix(1 0 0 1 -655.5693 16963.1094)">
</pattern>
<polygon fill="url(#SVGID_4_)" points="26.878,1.828 35.839,40.425 38.135,38.93 47.901,40.311 51.001,33.419 "/>
<path d="M51.179,32.649c4.4-9.01,8.729-18.331,13.271-27.359c0.25-0.494,0.383-1.518,1.237-1.443
	c0.543,0.693,0.146,1.611,0.064,2.336c-1.267,11.537-2.537,23.229-3.778,34.988c-0.085,0.826-0.392,1.886-0.271,2.479
	c0.146,0.76,1.875,2.148,2.543,2.814c4.505,4.504,8.334,9.021,12.922,13.611c1.179,1.176,2.562,2.627,3.92,4.055
	c0.396,0.42,1.178,1.062,0.963,1.516c-0.327,0.682-4.771,0.348-5.844,0.348c-12.433,0-24.208,0.201-36.569,0.201
	c-2.079,0-4.276-0.25-6.117,0c-1.089,0.148-2.31,0.773-3.508,1.17c-3.017,1-5.521,1.758-8.798,2.818
	c-1.596,0.518-1.875,0.688-2.336-0.963c-0.168-0.605-0.275-0.871-0.412-1.584c-1.706,0.809-2.625-1.416-3.368-2.4
	c-0.314-0.427-0.676-0.765-1.028-1.238c-0.286-0.389-0.89-1.108-0.896-1.375c-0.021-1.022,2.104-1.806,2.271-2.748
	c0.104-0.595-0.354-2.183-0.48-2.957c-1.112-6.617-2.495-13.694-3.507-20.209c-2.541,0.914-5.317,2.094-7.976,3.229
	c-0.806,0.349-1.705,1.097-2.61,0.688c-0.153-0.744,0.561-1.267,0.961-1.791c2.463-3.218,4.971-6.412,7.562-9.76
	c0.367-0.476,0.891-1.492,1.309-1.581c0.385-0.083,1.327,0.309,1.786,0.412c1.354,0.311,2.214,0.523,3.572,0.825
	c0.616,0.137,1.34,0.132,1.788,0.343c0.604,0.283,1.483,1.782,1.926,2.337c0.68,0.853,1.303,1.625,1.923,2.269
	c1.595-10.965,2.97-22.146,4.675-32.996c0.713-0.717,1.467,0.938,1.994,1.649C35.761,12.303,43.908,22.957,51.179,32.649z
	 M35.988,39.729c0.894-0.136,1.263-1.515,2.27-1.651c0.546-0.072,1.562,0.272,2.338,0.414c2.371,0.426,5.015,0.918,7.08,1.307
	c0.979-1.979,1.951-3.958,2.89-5.98C42.987,23.521,35.315,13.32,27.604,3.16C30.376,15.37,33.244,27.49,35.988,39.729z
	 M25.817,11.682c-0.892,6.504-1.819,12.807-2.685,19.316c-0.117,0.883-0.646,3.151-0.479,3.917c0.073,0.346,0.638,0.827,0.964,1.238
	c2.379,2.997,4.528,5.81,6.872,8.522c1.66-1.457,3.388-2.846,4.949-4.396c-2.921-12.091-5.543-24.477-8.522-36.502
	C26.656,6.325,26.194,8.924,25.817,11.682z M47.675,42.343c0.987,0.434,1.985,0.855,3.024,1.236c1.472-1.15,2.911-2.381,4.396-3.646
	c0.329-0.275,1.184-1.133,1.649-1.1c0.399,0.035,0.689,0.588,1.032,0.965c0.701,0.773,1.32,1.32,1.992,1.992
	c0.308,0.305,0.564,0.84,0.965,0.758c1.172-11.661,2.66-23.371,3.711-34.922C58.912,19.252,53.238,30.742,47.675,42.343z
	 M11.037,28.663c-2.289,2.913-4.534,5.87-6.808,8.797c1.979-1.636,4.102-3.356,6.115-5.086c0.667-0.571,1.348-1.444,2.062-1.718
	c1.293-0.492,2.763-0.212,4.262-0.689C14.819,29.508,12.91,29.1,11.037,28.663z M17.635,30.587
	c-1.537,0.249-3.125,0.449-4.674,0.688c2.181,12.458,4.586,24.699,6.805,37.12c4.214-6.513,8.271-13.177,12.306-19.866
	C27.27,42.539,22.565,36.451,17.635,30.587z M8.285,34.986c-1.347,1.146-2.732,2.299-3.849,3.438c0.004-0.043,0.01-0.08,0.066-0.065
	c1.25-0.556,2.509-1.047,3.779-1.586c1.225-0.517,2.452-1.283,3.851-1.373c0.483,1.192,0.603,2.517,0.824,3.778
	c1.499,8.449,3.146,17.188,4.674,25.502c0.112,0.611,0.062,1.341,0.48,1.855c0.871-0.14,0.307-1.258,0.205-1.789
	c-2.047-10.945-4.028-22.207-6.05-32.994C10.965,32.674,9.627,33.846,8.285,34.986z M46.645,41.929
	c0.129-0.387,0.536-0.814,0.479-1.168c-1.884-0.227-3.793-0.789-5.567-0.895C43.291,40.515,44.932,41.257,46.645,41.929z
	 M31.176,45.64c0.562,0.652,1.038,1.393,1.65,1.994c1.498-2.514,3.058-4.963,4.604-7.426c0.02-0.086,0.106-0.141-0.064-0.138
	C35.379,42.007,33.117,43.664,31.176,45.64z M41.348,51.279c2.681-2.138,5.697-4.525,8.318-6.943
	c-3.477-1.357-6.812-2.855-10.311-4.192C39.992,43.884,40.652,47.599,41.348,51.279z M56.611,40.142
	c-4.934,4.1-9.943,8.109-14.777,12.307c12.689,3.92,25.232,7.989,37.875,11.961C72.256,56.345,64.328,48.162,56.611,40.142z
	 M21.623,67.571c0.211,0.095,0.358-0.179,0.479-0.276c5.497-4.407,10.83-8.889,16.225-13.473c0.646-0.553,2.216-1.451,2.339-2.064
	c0.104-0.521-0.335-1.979-0.482-2.814c-0.468-2.667-1.104-6.535-1.646-8.521C32.928,49.501,27.296,58.554,21.623,67.571z
	 M37.502,59.183c-0.918,1.518-1.83,3.02-2.683,4.467c-0.299,0.514-0.715,1.031-0.688,1.445c14.875-0.064,29.795-0.088,44.544-0.276
	c-12.502-3.905-24.912-7.897-37.394-11.821C39.994,54.91,38.764,57.095,37.502,59.183z M30.627,61.589
	c-2.695,2.234-5.437,4.545-8.042,6.736c-0.104,0.09-0.393,0.188-0.345,0.411c3.594-1.174,7.135-2.396,10.793-3.505
	c2.159-3.615,4.364-7.188,6.461-10.863c0.073,0,0.055-0.088-0.068-0.066C36.651,56.763,33.574,59.142,30.627,61.589z M14.543,62.755
	c0.587,0.789,1.179,1.568,1.785,2.34c-0.209-1.23-0.32-2.562-0.688-3.645C15.293,61.904,14.836,62.25,14.543,62.755z"/>
</svg>
